<svg xmlns="http://www.w3.org/2000/svg" fill="none" viewBox="0 0 43 40">
  <path fill="#FAFAFA" d="M9.04698 21.3793c.23684-2.6601 1.94202-3.9409 5.16292-3.9409 4.3577 0 5.163.9852 5.163 5.3695v3.7438c0 4.335-.8053 5.3202-5.163 5.3202-3.1735 0-4.87872-.9852-5.16292-2.9064v-7.5862ZM0 0v39.4089h8.76279v-7.0936C9.71011 37.4384 12.7889 40 18.0466 40c8.8102 0 10.7995-2.2167 10.7995-13.2512v-4.2365c0-11.0345-1.942-13.25122-10.3258-13.25122-5.684 0-8.4313 1.33002-9.52068 5.91132V0H0ZM42.9382 31.0345h-8.0523v8.3744h8.0523v-8.3744Z"/>
</svg>