<svg xmlns="http://www.w3.org/2000/svg" fill="none" viewBox="0 0 192 30">
  <path fill="#FAFAFA" d="M6.36039 15.9578c.1665-1.8702 1.36532-2.7706 3.62975-2.7706 3.06366 0 3.62976.6926 3.62976 3.7749v2.6321c0 3.0476-.5661 3.7403-3.62976 3.7403-2.23113 0-3.42995-.6927-3.62975-2.0433v-5.3334ZM0 .927246V28.6332h6.16059v-4.987c.66601 3.6017 2.83054 5.4026 6.52691 5.4026 6.1939 0 7.5925-1.5584 7.5925-9.3161v-2.9784c0-7.75768-1.3653-9.31614-7.2595-9.31614-3.99607 0-5.9275.93507-6.69341 4.15594V.927246H0ZM29.0899 22.7108c0-1.316.333-1.5585 2.0646-1.5585l5.2282-.0346v.9004c0 1.6624-1.0323 2.2858-3.8628 2.3551h-.3331c-2.5974 0-3.0969-.2771-3.0969-1.6624Zm4.7953-15.27293h-1.5319c-7.7923 0-9.2575 1.10824-9.2575 6.82263v.8311h6.3271c-.0666-2.3896.4995-2.8052 3.6298-2.8052 2.7972 0 3.33.4156 3.33 2.8052v1.1776l-6.3271.0346c-6.427 0-7.6258 1.0043-7.6258 6.3377 0 5.5759 1.1988 6.6148 7.7257 6.407 3.1303-.0346 5.3614-1.316 6.2272-4.0866v3.671h6.3271V14.6414c0-6.06066-1.3986-7.20353-8.8246-7.20353ZM50.8411 22.122v-.4502H44.847v.4502c0 5.8183 1.3987 6.9265 8.7248 6.9265h1.5318c8.3917 0 9.9235-.9697 9.9235-5.9567 0-3.2209-.7659-5.091-3.9627-6.0607-1.6984-.5195-3.2302-.9351-6.4936-1.4892-2.1646-.3464-2.764-.7619-2.764-1.6278 0-1.2814.6661-1.6277 3.1303-1.6277 2.5641 0 3.2634.4849 3.2634 2.1819v.6233h6.3271v-.6233c0-5.92219-1.3986-7.03043-8.8246-7.03043h-1.5318c-7.5925 0-9.0244.96971-9.0244 6.26843 0 2.7706.6993 4.3291 3.4299 5.4027 1.998.7966 5.0284 1.2814 6.1939 1.5238 2.9304.5542 3.6297 1.1083 3.6297 1.9741 0 1.2468-.7659 1.5931-3.6297 1.5931-3.097 0-3.9295-.4502-3.9295-2.078ZM73.6021 15.6111v-.1039c0-2.7013.5994-3.2208 3.8629-3.2208 3.0969 0 3.7629.5195 3.7962 3.3247h-7.6591Zm14.1527 6.407h-6.6601c0 1.8009-.5661 2.1819-3.6297 2.1819-3.2635 0-3.8629-.5888-3.8629-3.6364v-.1039h14.3192v-3.2208c0-8.24257-1.5318-9.80103-9.7237-9.80103h-1.5318c-8.192 0-9.7238 1.69699-9.7238 10.80533 0 9.1084 1.5318 10.8053 9.7238 10.8053h1.5318c8.0587 0 9.5572-1.1082 9.5572-7.0304ZM90.7247 7.85346V28.633h6.3271V16.6155c0-2.4243 1.0989-3.6364 3.2972-3.6364 2.564 0 3.03.5195 3.03 3.2208V28.633h6.294l-.034-12.2253c.067-2.2858 1.166-3.4286 3.297-3.4286 2.531 0 2.997.5195 2.997 3.2208V28.633h6.294l-.033-13.4375c0-6.51086-1.133-7.75763-7.227-7.75763-3.363 0-5.394 1.52383-6.127 4.81393-.266-3.94812-1.365-4.81393-6.393-4.81393-2.9975 0-4.6959 1.2814-5.3952 4.39833V7.85346h-6.3271ZM131.343 15.6111v-.1039c0-2.7013.599-3.2208 3.863-3.2208 3.097 0 3.763.5195 3.796 3.3247h-7.659Zm14.152 6.407h-6.66c0 1.8009-.566 2.1819-3.629 2.1819-3.264 0-3.863-.5888-3.863-3.6364v-.1039h14.319v-3.2208c0-8.24257-1.532-9.80103-9.724-9.80103h-1.532c-8.192 0-9.723 1.69699-9.723 10.80533 0 9.1084 1.531 10.8053 9.723 10.8053h1.532c8.059 0 9.557-1.1082 9.557-7.0304ZM148.395 7.85346V28.633h6.327V16.2692c.034-2.2165 1.199-3.2901 3.497-3.2901 2.93 0 3.463.5887 3.463 3.7749v11.879h6.327l-.033-13.4375c0-6.51086-1.099-7.75763-6.893-7.75763-3.63 0-5.595 1.2814-6.361 4.64073V7.85346h-6.327ZM183.938 22.7455h-3.697c-1.931 0-2.297-.3464-2.297-2.1126v-7.2382h5.661V7.85349h-5.661V3.42053h-5.994v4.43296h-2.331v5.54121h1.998v8.2425c0 5.8876 1.298 6.9958 7.992 6.9958h4.329v-5.8875ZM192 22.7455h-5.661v5.8875H192v-5.8875Z"/>
</svg>